<svg width="1400" height="800.0000000000001" xmlns="http://www.w3.org/2000/svg" stroke="null" style="vector-effect: non-scaling-stroke;" version="1.1" baseProfile="full">
 <!-- 三角形 -->
 <g stroke="null">
  <title stroke="null" style="vector-effect: non-scaling-stroke;">background</title>
  <rect stroke="null" style="vector-effect: non-scaling-stroke;" x="-1" y="-1" width="1402" height="802" id="canvas_background" fill="none"/>
 </g>
 <g stroke="null">
  <title stroke="null">Layer 1</title>
  <defs stroke="null" id="svg_220">
   <pattern stroke="null" style="vector-effect: non-scaling-stroke;" patternUnits="userSpaceOnUse" width="331.71499" height="327.78942" patternTransform="matrix(1.0074673,-1.7286202e-8,0,1.0180441,229.69217,251.69622)" id="svg_265">
    <g stroke="null" style="vector-effect: non-scaling-stroke;" id="svg_266">
     <path stroke="#898989" id="svg_286" d="m0.25148,42.91866l331.212,0" style="fill: none; fill-rule: evenodd; stroke: rgb(137, 137, 137); stroke-width: 0.502987; stroke-linecap: butt; stroke-linejoin: miter; stroke-miterlimit: 4; stroke-dasharray: none; stroke-opacity: 1; vector-effect: non-scaling-stroke;" stroke-miterlimit="4" stroke-width="0.502987" fill-rule="evenodd" fill="none"/>
     <g stroke="null" style="vector-effect: non-scaling-stroke;" id="svg_267">
      <path stroke="#898989" id="svg_285" d="m33.30796,327.53942l0,-327.28942" style="fill: none; fill-rule: evenodd; stroke: rgb(137, 137, 137); stroke-width: 0.5; stroke-linecap: butt; stroke-linejoin: miter; stroke-miterlimit: 4; stroke-dasharray: none; stroke-opacity: 1; vector-effect: non-scaling-stroke;" stroke-miterlimit="4" stroke-width="0.5" fill-rule="evenodd" fill="none"/>
      <path stroke="#898989" style="fill: none; fill-rule: evenodd; stroke: rgb(137, 137, 137); stroke-width: 0.5; stroke-linecap: butt; stroke-linejoin: miter; stroke-miterlimit: 4; stroke-dasharray: none; stroke-opacity: 1; vector-effect: non-scaling-stroke;" d="m69.80796,327.53942l0,-327.28942" id="svg_284" stroke-miterlimit="4" stroke-width="0.5" fill-rule="evenodd" fill="none"/>
      <path stroke="#898989" id="svg_283" d="m106.30796,327.53942l0,-327.28942" style="fill: none; fill-rule: evenodd; stroke: rgb(137, 137, 137); stroke-width: 0.5; stroke-linecap: butt; stroke-linejoin: miter; stroke-miterlimit: 4; stroke-dasharray: none; stroke-opacity: 1; vector-effect: non-scaling-stroke;" stroke-miterlimit="4" stroke-width="0.5" fill-rule="evenodd" fill="none"/>
      <path stroke="#898989" style="fill: none; fill-rule: evenodd; stroke: rgb(137, 137, 137); stroke-width: 0.5; stroke-linecap: butt; stroke-linejoin: miter; stroke-miterlimit: 4; stroke-dasharray: none; stroke-opacity: 1; vector-effect: non-scaling-stroke;" d="m142.80796,327.53942l0,-327.28942" id="svg_282" stroke-miterlimit="4" stroke-width="0.5" fill-rule="evenodd" fill="none"/>
      <path stroke="#898989" id="svg_281" d="m179.30796,327.53942l0,-327.28942" style="fill: none; fill-rule: evenodd; stroke: rgb(137, 137, 137); stroke-width: 0.5; stroke-linecap: butt; stroke-linejoin: miter; stroke-miterlimit: 4; stroke-dasharray: none; stroke-opacity: 1; vector-effect: non-scaling-stroke;" stroke-miterlimit="4" stroke-width="0.5" fill-rule="evenodd" fill="none"/>
      <path stroke="#898989" style="fill: none; fill-rule: evenodd; stroke: rgb(137, 137, 137); stroke-width: 0.5; stroke-linecap: butt; stroke-linejoin: miter; stroke-miterlimit: 4; stroke-dasharray: none; stroke-opacity: 1; vector-effect: non-scaling-stroke;" d="m215.80796,327.53942l0,-327.28942" id="svg_280" stroke-miterlimit="4" stroke-width="0.5" fill-rule="evenodd" fill="none"/>
      <path stroke="#898989" id="svg_279" d="m252.30796,327.53942l0,-327.28942" style="fill: none; fill-rule: evenodd; stroke: rgb(137, 137, 137); stroke-width: 0.5; stroke-linecap: butt; stroke-linejoin: miter; stroke-miterlimit: 4; stroke-dasharray: none; stroke-opacity: 1; vector-effect: non-scaling-stroke;" stroke-miterlimit="4" stroke-width="0.5" fill-rule="evenodd" fill="none"/>
      <path stroke="#898989" style="fill: none; fill-rule: evenodd; stroke: rgb(137, 137, 137); stroke-width: 0.5; stroke-linecap: butt; stroke-linejoin: miter; stroke-miterlimit: 4; stroke-dasharray: none; stroke-opacity: 1; vector-effect: non-scaling-stroke;" d="m288.80796,327.53942l0,-327.28942" id="svg_278" stroke-miterlimit="4" stroke-width="0.5" fill-rule="evenodd" fill="none"/>
      <path stroke="#898989" id="svg_277" d="m325.30796,327.53942l0,-327.28942" style="fill: none; fill-rule: evenodd; stroke: rgb(137, 137, 137); stroke-width: 0.5; stroke-linecap: butt; stroke-linejoin: miter; stroke-miterlimit: 4; stroke-dasharray: none; stroke-opacity: 1; vector-effect: non-scaling-stroke;" stroke-miterlimit="4" stroke-width="0.5" fill-rule="evenodd" fill="none"/>
      <path stroke="#898989" id="svg_276" d="m0.25148,294.91868l331.212,0" style="fill: none; fill-rule: evenodd; stroke: rgb(137, 137, 137); stroke-width: 0.502987; stroke-linecap: butt; stroke-linejoin: miter; stroke-miterlimit: 4; stroke-dasharray: none; stroke-opacity: 1; vector-effect: non-scaling-stroke;" stroke-miterlimit="4" stroke-width="0.502987" fill-rule="evenodd" fill="none"/>
      <path stroke="#898989" style="fill: none; fill-rule: evenodd; stroke: rgb(137, 137, 137); stroke-width: 0.502987; stroke-linecap: butt; stroke-linejoin: miter; stroke-miterlimit: 4; stroke-dasharray: none; stroke-opacity: 1; vector-effect: non-scaling-stroke;" d="m0.25148,258.91868l331.212,0" id="svg_275" stroke-miterlimit="4" stroke-width="0.502987" fill-rule="evenodd" fill="none"/>
      <path stroke="#898989" id="svg_274" d="m0.25148,222.91866l331.212,0" style="fill: none; fill-rule: evenodd; stroke: rgb(137, 137, 137); stroke-width: 0.502987; stroke-linecap: butt; stroke-linejoin: miter; stroke-miterlimit: 4; stroke-dasharray: none; stroke-opacity: 1; vector-effect: non-scaling-stroke;" stroke-miterlimit="4" stroke-width="0.502987" fill-rule="evenodd" fill="none"/>
      <path stroke="#898989" style="fill: none; fill-rule: evenodd; stroke: rgb(137, 137, 137); stroke-width: 0.502987; stroke-linecap: butt; stroke-linejoin: miter; stroke-miterlimit: 4; stroke-dasharray: none; stroke-opacity: 1; vector-effect: non-scaling-stroke;" d="m0.25148,186.91866l331.212,0" id="svg_273" stroke-miterlimit="4" stroke-width="0.502987" fill-rule="evenodd" fill="none"/>
      <path stroke="#898989" id="svg_272" d="m0.25148,150.91866l331.212,0" style="fill: none; fill-rule: evenodd; stroke: rgb(137, 137, 137); stroke-width: 0.502987; stroke-linecap: butt; stroke-linejoin: miter; stroke-miterlimit: 4; stroke-dasharray: none; stroke-opacity: 1; vector-effect: non-scaling-stroke;" stroke-miterlimit="4" stroke-width="0.502987" fill-rule="evenodd" fill="none"/>
      <path stroke="#898989" style="fill: none; fill-rule: evenodd; stroke: rgb(137, 137, 137); stroke-width: 0.502987; stroke-linecap: butt; stroke-linejoin: miter; stroke-miterlimit: 4; stroke-dasharray: none; stroke-opacity: 1; vector-effect: non-scaling-stroke;" d="m0.25148,114.91866l331.212,0" id="svg_271" stroke-miterlimit="4" stroke-width="0.502987" fill-rule="evenodd" fill="none"/>
      <path stroke="#898989" id="svg_270" d="m0.25148,78.91866l331.212,0" style="fill: none; fill-rule: evenodd; stroke: rgb(137, 137, 137); stroke-width: 0.502987; stroke-linecap: butt; stroke-linejoin: miter; stroke-miterlimit: 4; stroke-dasharray: none; stroke-opacity: 1; vector-effect: non-scaling-stroke;" stroke-miterlimit="4" stroke-width="0.502987" fill-rule="evenodd" fill="none"/>
      <path stroke="#898989" id="svg_269" d="m0.25148,6.91868l331.212,0" style="fill: none; fill-rule: evenodd; stroke: rgb(137, 137, 137); stroke-width: 0.502987; stroke-linecap: butt; stroke-linejoin: miter; stroke-miterlimit: 4; stroke-dasharray: none; stroke-opacity: 1; vector-effect: non-scaling-stroke;" stroke-miterlimit="4" stroke-width="0.502987" fill-rule="evenodd" fill="none"/>
      <path stroke="#898989" style="fill: none; fill-rule: evenodd; stroke: rgb(137, 137, 137); stroke-width: 0.502987; stroke-linecap: butt; stroke-linejoin: miter; stroke-miterlimit: 4; stroke-dasharray: none; stroke-opacity: 1; vector-effect: non-scaling-stroke;" d="m0.25148,6.91866l331.212,0" id="svg_268" stroke-miterlimit="4" stroke-width="0.502987" fill-rule="evenodd" fill="none"/>
     </g>
    </g>
   </pattern>
   <pattern stroke="null" style="vector-effect: non-scaling-stroke;" id="svg_243" patternTransform="matrix(1.0074673,-1.7286202e-8,0,1.0180441,229.69217,251.69622)" height="327.78942" width="331.71499" patternUnits="userSpaceOnUse">
    <g stroke="null" style="vector-effect: non-scaling-stroke;" id="svg_244">
     <path stroke="#898989" style="fill: none; fill-rule: evenodd; stroke: rgb(137, 137, 137); stroke-width: 0.502987; stroke-linecap: butt; stroke-linejoin: miter; stroke-miterlimit: 4; stroke-dasharray: none; stroke-opacity: 1; vector-effect: non-scaling-stroke;" d="m0.25148,42.91866l331.212,0" id="svg_264" stroke-miterlimit="4" stroke-width="0.502987" fill-rule="evenodd" fill="none"/>
     <g stroke="null" style="vector-effect: non-scaling-stroke;" id="svg_245">
      <path stroke="#898989" style="fill: none; fill-rule: evenodd; stroke: rgb(137, 137, 137); stroke-width: 0.5; stroke-linecap: butt; stroke-linejoin: miter; stroke-miterlimit: 4; stroke-dasharray: none; stroke-opacity: 1; vector-effect: non-scaling-stroke;" d="m33.30796,327.53942l0,-327.28942" id="svg_263" stroke-miterlimit="4" stroke-width="0.5" fill-rule="evenodd" fill="none"/>
      <path stroke="#898989" id="svg_262" d="m69.80796,327.53942l0,-327.28942" style="fill: none; fill-rule: evenodd; stroke: rgb(137, 137, 137); stroke-width: 0.5; stroke-linecap: butt; stroke-linejoin: miter; stroke-miterlimit: 4; stroke-dasharray: none; stroke-opacity: 1; vector-effect: non-scaling-stroke;" stroke-miterlimit="4" stroke-width="0.5" fill-rule="evenodd" fill="none"/>
      <path stroke="#898989" style="fill: none; fill-rule: evenodd; stroke: rgb(137, 137, 137); stroke-width: 0.5; stroke-linecap: butt; stroke-linejoin: miter; stroke-miterlimit: 4; stroke-dasharray: none; stroke-opacity: 1; vector-effect: non-scaling-stroke;" d="m106.30796,327.53942l0,-327.28942" id="svg_261" stroke-miterlimit="4" stroke-width="0.5" fill-rule="evenodd" fill="none"/>
      <path stroke="#898989" id="svg_260" d="m142.80796,327.53942l0,-327.28942" style="fill: none; fill-rule: evenodd; stroke: rgb(137, 137, 137); stroke-width: 0.5; stroke-linecap: butt; stroke-linejoin: miter; stroke-miterlimit: 4; stroke-dasharray: none; stroke-opacity: 1; vector-effect: non-scaling-stroke;" stroke-miterlimit="4" stroke-width="0.5" fill-rule="evenodd" fill="none"/>
      <path stroke="#898989" style="fill: none; fill-rule: evenodd; stroke: rgb(137, 137, 137); stroke-width: 0.5; stroke-linecap: butt; stroke-linejoin: miter; stroke-miterlimit: 4; stroke-dasharray: none; stroke-opacity: 1; vector-effect: non-scaling-stroke;" d="m179.30796,327.53942l0,-327.28942" id="svg_259" stroke-miterlimit="4" stroke-width="0.5" fill-rule="evenodd" fill="none"/>
      <path stroke="#898989" id="svg_258" d="m215.80796,327.53942l0,-327.28942" style="fill: none; fill-rule: evenodd; stroke: rgb(137, 137, 137); stroke-width: 0.5; stroke-linecap: butt; stroke-linejoin: miter; stroke-miterlimit: 4; stroke-dasharray: none; stroke-opacity: 1; vector-effect: non-scaling-stroke;" stroke-miterlimit="4" stroke-width="0.5" fill-rule="evenodd" fill="none"/>
      <path stroke="#898989" style="fill: none; fill-rule: evenodd; stroke: rgb(137, 137, 137); stroke-width: 0.5; stroke-linecap: butt; stroke-linejoin: miter; stroke-miterlimit: 4; stroke-dasharray: none; stroke-opacity: 1; vector-effect: non-scaling-stroke;" d="m252.30796,327.53942l0,-327.28942" id="svg_257" stroke-miterlimit="4" stroke-width="0.5" fill-rule="evenodd" fill="none"/>
      <path stroke="#898989" id="svg_256" d="m288.80796,327.53942l0,-327.28942" style="fill: none; fill-rule: evenodd; stroke: rgb(137, 137, 137); stroke-width: 0.5; stroke-linecap: butt; stroke-linejoin: miter; stroke-miterlimit: 4; stroke-dasharray: none; stroke-opacity: 1; vector-effect: non-scaling-stroke;" stroke-miterlimit="4" stroke-width="0.5" fill-rule="evenodd" fill="none"/>
      <path stroke="#898989" style="fill: none; fill-rule: evenodd; stroke: rgb(137, 137, 137); stroke-width: 0.5; stroke-linecap: butt; stroke-linejoin: miter; stroke-miterlimit: 4; stroke-dasharray: none; stroke-opacity: 1; vector-effect: non-scaling-stroke;" d="m325.30796,327.53942l0,-327.28942" id="svg_255" stroke-miterlimit="4" stroke-width="0.5" fill-rule="evenodd" fill="none"/>
      <path stroke="#898989" style="fill: none; fill-rule: evenodd; stroke: rgb(137, 137, 137); stroke-width: 0.502987; stroke-linecap: butt; stroke-linejoin: miter; stroke-miterlimit: 4; stroke-dasharray: none; stroke-opacity: 1; vector-effect: non-scaling-stroke;" d="m0.25148,294.91868l331.212,0" id="svg_254" stroke-miterlimit="4" stroke-width="0.502987" fill-rule="evenodd" fill="none"/>
      <path stroke="#898989" id="svg_253" d="m0.25148,258.91868l331.212,0" style="fill: none; fill-rule: evenodd; stroke: rgb(137, 137, 137); stroke-width: 0.502987; stroke-linecap: butt; stroke-linejoin: miter; stroke-miterlimit: 4; stroke-dasharray: none; stroke-opacity: 1; vector-effect: non-scaling-stroke;" stroke-miterlimit="4" stroke-width="0.502987" fill-rule="evenodd" fill="none"/>
      <path stroke="#898989" style="fill: none; fill-rule: evenodd; stroke: rgb(137, 137, 137); stroke-width: 0.502987; stroke-linecap: butt; stroke-linejoin: miter; stroke-miterlimit: 4; stroke-dasharray: none; stroke-opacity: 1; vector-effect: non-scaling-stroke;" d="m0.25148,222.91866l331.212,0" id="svg_252" stroke-miterlimit="4" stroke-width="0.502987" fill-rule="evenodd" fill="none"/>
      <path stroke="#898989" id="svg_251" d="m0.25148,186.91866l331.212,0" style="fill: none; fill-rule: evenodd; stroke: rgb(137, 137, 137); stroke-width: 0.502987; stroke-linecap: butt; stroke-linejoin: miter; stroke-miterlimit: 4; stroke-dasharray: none; stroke-opacity: 1; vector-effect: non-scaling-stroke;" stroke-miterlimit="4" stroke-width="0.502987" fill-rule="evenodd" fill="none"/>
      <path stroke="#898989" style="fill: none; fill-rule: evenodd; stroke: rgb(137, 137, 137); stroke-width: 0.502987; stroke-linecap: butt; stroke-linejoin: miter; stroke-miterlimit: 4; stroke-dasharray: none; stroke-opacity: 1; vector-effect: non-scaling-stroke;" d="m0.25148,150.91866l331.212,0" id="svg_250" stroke-miterlimit="4" stroke-width="0.502987" fill-rule="evenodd" fill="none"/>
      <path stroke="#898989" id="svg_249" d="m0.25148,114.91866l331.212,0" style="fill: none; fill-rule: evenodd; stroke: rgb(137, 137, 137); stroke-width: 0.502987; stroke-linecap: butt; stroke-linejoin: miter; stroke-miterlimit: 4; stroke-dasharray: none; stroke-opacity: 1; vector-effect: non-scaling-stroke;" stroke-miterlimit="4" stroke-width="0.502987" fill-rule="evenodd" fill="none"/>
      <path stroke="#898989" style="fill: none; fill-rule: evenodd; stroke: rgb(137, 137, 137); stroke-width: 0.502987; stroke-linecap: butt; stroke-linejoin: miter; stroke-miterlimit: 4; stroke-dasharray: none; stroke-opacity: 1; vector-effect: non-scaling-stroke;" d="m0.25148,78.91866l331.212,0" id="svg_248" stroke-miterlimit="4" stroke-width="0.502987" fill-rule="evenodd" fill="none"/>
      <path stroke="#898989" style="fill: none; fill-rule: evenodd; stroke: rgb(137, 137, 137); stroke-width: 0.502987; stroke-linecap: butt; stroke-linejoin: miter; stroke-miterlimit: 4; stroke-dasharray: none; stroke-opacity: 1; vector-effect: non-scaling-stroke;" d="m0.25148,6.91868l331.212,0" id="svg_247" stroke-miterlimit="4" stroke-width="0.502987" fill-rule="evenodd" fill="none"/>
      <path stroke="#898989" id="svg_246" d="m0.25148,6.91866l331.212,0" style="fill: none; fill-rule: evenodd; stroke: rgb(137, 137, 137); stroke-width: 0.502987; stroke-linecap: butt; stroke-linejoin: miter; stroke-miterlimit: 4; stroke-dasharray: none; stroke-opacity: 1; vector-effect: non-scaling-stroke;" stroke-miterlimit="4" stroke-width="0.502987" fill-rule="evenodd" fill="none"/>
     </g>
    </g>
   </pattern>
   <pattern stroke="null" style="vector-effect: non-scaling-stroke;" id="svg_221" patternTransform="matrix(1.0074673,-1.7286202e-8,0,1.0180441,229.69217,251.69622)" height="327.78942" width="331.71499" patternUnits="userSpaceOnUse">
    <g stroke="null" style="vector-effect: non-scaling-stroke;" id="svg_222">
     <path stroke="#898989" style="fill: none; fill-rule: evenodd; stroke: rgb(137, 137, 137); stroke-width: 0.502987; stroke-linecap: butt; stroke-linejoin: miter; stroke-miterlimit: 4; stroke-dasharray: none; stroke-opacity: 1; vector-effect: non-scaling-stroke;" d="m0.25148,42.91866l331.212,0" id="svg_242" stroke-miterlimit="4" stroke-width="0.502987" fill-rule="evenodd" fill="none"/>
     <g stroke="null" style="vector-effect: non-scaling-stroke;" id="svg_223">
      <path stroke="#898989" style="fill: none; fill-rule: evenodd; stroke: rgb(137, 137, 137); stroke-width: 0.5; stroke-linecap: butt; stroke-linejoin: miter; stroke-miterlimit: 4; stroke-dasharray: none; stroke-opacity: 1; vector-effect: non-scaling-stroke;" d="m33.30796,327.53942l0,-327.28942" id="svg_241" stroke-miterlimit="4" stroke-width="0.5" fill-rule="evenodd" fill="none"/>
      <path stroke="#898989" id="svg_240" d="m69.80796,327.53942l0,-327.28942" style="fill: none; fill-rule: evenodd; stroke: rgb(137, 137, 137); stroke-width: 0.5; stroke-linecap: butt; stroke-linejoin: miter; stroke-miterlimit: 4; stroke-dasharray: none; stroke-opacity: 1; vector-effect: non-scaling-stroke;" stroke-miterlimit="4" stroke-width="0.5" fill-rule="evenodd" fill="none"/>
      <path stroke="#898989" style="fill: none; fill-rule: evenodd; stroke: rgb(137, 137, 137); stroke-width: 0.5; stroke-linecap: butt; stroke-linejoin: miter; stroke-miterlimit: 4; stroke-dasharray: none; stroke-opacity: 1; vector-effect: non-scaling-stroke;" d="m106.30796,327.53942l0,-327.28942" id="svg_239" stroke-miterlimit="4" stroke-width="0.5" fill-rule="evenodd" fill="none"/>
      <path stroke="#898989" id="svg_238" d="m142.80796,327.53942l0,-327.28942" style="fill: none; fill-rule: evenodd; stroke: rgb(137, 137, 137); stroke-width: 0.5; stroke-linecap: butt; stroke-linejoin: miter; stroke-miterlimit: 4; stroke-dasharray: none; stroke-opacity: 1; vector-effect: non-scaling-stroke;" stroke-miterlimit="4" stroke-width="0.5" fill-rule="evenodd" fill="none"/>
      <path stroke="#898989" style="fill: none; fill-rule: evenodd; stroke: rgb(137, 137, 137); stroke-width: 0.5; stroke-linecap: butt; stroke-linejoin: miter; stroke-miterlimit: 4; stroke-dasharray: none; stroke-opacity: 1; vector-effect: non-scaling-stroke;" d="m179.30796,327.53942l0,-327.28942" id="svg_237" stroke-miterlimit="4" stroke-width="0.5" fill-rule="evenodd" fill="none"/>
      <path stroke="#898989" id="svg_236" d="m215.80796,327.53942l0,-327.28942" style="fill: none; fill-rule: evenodd; stroke: rgb(137, 137, 137); stroke-width: 0.5; stroke-linecap: butt; stroke-linejoin: miter; stroke-miterlimit: 4; stroke-dasharray: none; stroke-opacity: 1; vector-effect: non-scaling-stroke;" stroke-miterlimit="4" stroke-width="0.5" fill-rule="evenodd" fill="none"/>
      <path stroke="#898989" style="fill: none; fill-rule: evenodd; stroke: rgb(137, 137, 137); stroke-width: 0.5; stroke-linecap: butt; stroke-linejoin: miter; stroke-miterlimit: 4; stroke-dasharray: none; stroke-opacity: 1; vector-effect: non-scaling-stroke;" d="m252.30796,327.53942l0,-327.28942" id="svg_235" stroke-miterlimit="4" stroke-width="0.5" fill-rule="evenodd" fill="none"/>
      <path stroke="#898989" id="svg_234" d="m288.80796,327.53942l0,-327.28942" style="fill: none; fill-rule: evenodd; stroke: rgb(137, 137, 137); stroke-width: 0.5; stroke-linecap: butt; stroke-linejoin: miter; stroke-miterlimit: 4; stroke-dasharray: none; stroke-opacity: 1; vector-effect: non-scaling-stroke;" stroke-miterlimit="4" stroke-width="0.5" fill-rule="evenodd" fill="none"/>
      <path stroke="#898989" style="fill: none; fill-rule: evenodd; stroke: rgb(137, 137, 137); stroke-width: 0.5; stroke-linecap: butt; stroke-linejoin: miter; stroke-miterlimit: 4; stroke-dasharray: none; stroke-opacity: 1; vector-effect: non-scaling-stroke;" d="m325.30796,327.53942l0,-327.28942" id="svg_233" stroke-miterlimit="4" stroke-width="0.5" fill-rule="evenodd" fill="none"/>
      <path stroke="#898989" style="fill: none; fill-rule: evenodd; stroke: rgb(137, 137, 137); stroke-width: 0.502987; stroke-linecap: butt; stroke-linejoin: miter; stroke-miterlimit: 4; stroke-dasharray: none; stroke-opacity: 1; vector-effect: non-scaling-stroke;" d="m0.25148,294.91868l331.212,0" id="svg_232" stroke-miterlimit="4" stroke-width="0.502987" fill-rule="evenodd" fill="none"/>
      <path stroke="#898989" id="svg_231" d="m0.25148,258.91868l331.212,0" style="fill: none; fill-rule: evenodd; stroke: rgb(137, 137, 137); stroke-width: 0.502987; stroke-linecap: butt; stroke-linejoin: miter; stroke-miterlimit: 4; stroke-dasharray: none; stroke-opacity: 1; vector-effect: non-scaling-stroke;" stroke-miterlimit="4" stroke-width="0.502987" fill-rule="evenodd" fill="none"/>
      <path stroke="#898989" style="fill: none; fill-rule: evenodd; stroke: rgb(137, 137, 137); stroke-width: 0.502987; stroke-linecap: butt; stroke-linejoin: miter; stroke-miterlimit: 4; stroke-dasharray: none; stroke-opacity: 1; vector-effect: non-scaling-stroke;" d="m0.25148,222.91866l331.212,0" id="svg_230" stroke-miterlimit="4" stroke-width="0.502987" fill-rule="evenodd" fill="none"/>
      <path stroke="#898989" id="svg_229" d="m0.25148,186.91866l331.212,0" style="fill: none; fill-rule: evenodd; stroke: rgb(137, 137, 137); stroke-width: 0.502987; stroke-linecap: butt; stroke-linejoin: miter; stroke-miterlimit: 4; stroke-dasharray: none; stroke-opacity: 1; vector-effect: non-scaling-stroke;" stroke-miterlimit="4" stroke-width="0.502987" fill-rule="evenodd" fill="none"/>
      <path stroke="#898989" style="fill: none; fill-rule: evenodd; stroke: rgb(137, 137, 137); stroke-width: 0.502987; stroke-linecap: butt; stroke-linejoin: miter; stroke-miterlimit: 4; stroke-dasharray: none; stroke-opacity: 1; vector-effect: non-scaling-stroke;" d="m0.25148,150.91866l331.212,0" id="svg_228" stroke-miterlimit="4" stroke-width="0.502987" fill-rule="evenodd" fill="none"/>
      <path stroke="#898989" id="svg_227" d="m0.25148,114.91866l331.212,0" style="fill: none; fill-rule: evenodd; stroke: rgb(137, 137, 137); stroke-width: 0.502987; stroke-linecap: butt; stroke-linejoin: miter; stroke-miterlimit: 4; stroke-dasharray: none; stroke-opacity: 1; vector-effect: non-scaling-stroke;" stroke-miterlimit="4" stroke-width="0.502987" fill-rule="evenodd" fill="none"/>
      <path stroke="#898989" style="fill: none; fill-rule: evenodd; stroke: rgb(137, 137, 137); stroke-width: 0.502987; stroke-linecap: butt; stroke-linejoin: miter; stroke-miterlimit: 4; stroke-dasharray: none; stroke-opacity: 1; vector-effect: non-scaling-stroke;" d="m0.25148,78.91866l331.212,0" id="svg_226" stroke-miterlimit="4" stroke-width="0.502987" fill-rule="evenodd" fill="none"/>
      <path stroke="#898989" style="fill: none; fill-rule: evenodd; stroke: rgb(137, 137, 137); stroke-width: 0.502987; stroke-linecap: butt; stroke-linejoin: miter; stroke-miterlimit: 4; stroke-dasharray: none; stroke-opacity: 1; vector-effect: non-scaling-stroke;" d="m0.25148,6.91868l331.212,0" id="svg_225" stroke-miterlimit="4" stroke-width="0.502987" fill-rule="evenodd" fill="none"/>
      <path stroke="#898989" id="svg_224" d="m0.25148,6.91866l331.212,0" style="fill: none; fill-rule: evenodd; stroke: rgb(137, 137, 137); stroke-width: 0.502987; stroke-linecap: butt; stroke-linejoin: miter; stroke-miterlimit: 4; stroke-dasharray: none; stroke-opacity: 1; vector-effect: non-scaling-stroke;" stroke-miterlimit="4" stroke-width="0.502987" fill-rule="evenodd" fill="none"/>
     </g>
    </g>
   </pattern>
  </defs>
  <metadata stroke="null" id="svg_219" transform="matrix(0.005804747283399969,0,0,0.005804747283399969,0,0) ">image/svg+xml</metadata>
  <path stroke="rgb(129, 201, 149)" id="svg_15" d="m345.109741,246.548486c4.91448,-0.770906 40.609336,30.674452 41.282574,37.010927c0.982896,9.252608 23.590132,9.252608 29.487508,9.252608c5.897691,0 48.16316,20.047523 76.667772,41.637354c28.504927,21.589583 112.052971,1.54206 117.950346,0c5.897691,-1.542307 275.217789,-42.408261 347.953663,-13.879036c34.93301,13.701648 103.789329,-34.706372 112.790221,-135.32103c-3.685938,-67.081964 -80.587058,-69.599532 -96.571966,-49.154928c-11.795066,9.059881 -31.944905,6.361214 -27.03011,-10.216488c4.468913,-11.1012 34.401987,-45.299654 89.691379,-30.264012c46.872183,12.746674 73.983019,43.405045 84.039649,88.478821c6.634626,97.153497 -86.251401,168.861888 -86.251401,168.861888c0,0 7.371877,25.445105 17.692757,41.637354c10.320565,16.192249 13.269252,71.708392 11.794751,78.647786c-1.474186,6.939641 44.231577,45.107175 58.975331,46.263534c12.777962,4.626428 48.654766,90.214102 50.128952,108.719318c13.269568,5.204607 -1.474186,31.227892 -17.692442,34.697713c-16.218255,3.469821 -20.641445,-20.818677 -20.641445,-32.384499c0,-11.565822 -16.218255,-65.925605 -61.924018,-71.708392c-45.705763,-5.783035 -85.513835,-25.445105 -85.513835,-25.445105c0,0 -2.949003,11.566069 -8.846378,16.192497c0,0 14.743754,19.661823 14.743754,48.576501c-1.474186,12.722429 -25.064318,52.046569 -41.282574,55.51639c0,0 -26.53882,32.384499 -38.333886,32.384499c-11.795066,0 -32.436511,11.565822 -64.872706,-2.313214c0,0 5.897375,-28.914678 35.385198,-20.818677c0,0 69.295895,-41.637107 35.384883,-60.14257c0,0 -20.641129,-23.131644 -32.436195,-32.384499c-11.795066,-9.252608 -23.590132,-24.28825 -26.53882,-41.637107c0,0 -98.783403,-4.626428 -123.848037,-9.252855c-25.064318,-4.62618 -70.770081,6.939641 -70.770081,13.879036c0,6.939641 7.371877,72.865246 20.641129,85.587675c0,0 4.423189,16.192249 0,20.818677c-4.423189,4.62618 16.218255,42.793714 -23.590132,39.323893c-37.596635,5.204607 -56.026328,-17.927036 -11.794751,-25.444857c2.211437,-24.866678 -56.026643,-130.116175 -94.360529,-115.65896c-50.128952,5.783035 -33.173446,-28.336251 -82.565148,25.445105c-51.603454,47.419894 -140.066292,80.961 -144.489166,101.779677c0,0 -26.53882,-4.626428 -32.436511,11.565822c0,0 -69.295895,6.939641 -64.872706,-2.313214c4.423189,-9.252608 8.109128,-28.336251 35.385198,-20.81843c0,0 61.924018,-19.08389 120.899034,-117.972174c0,0 -7.371877,-25.444857 2.948688,-46.263534c10.32088,-20.81843 -5.897375,-106.406105 -79.61646,-101.779677c0,0 -27.521716,7.710548 -44.231262,-27.758071c0,0 -6.880587,-6.939641 0,-13.879036c6.880271,-6.939641 23.590132,-17.73431 26.53882,-25.444857c2.948688,-7.710795 9.829274,-19.276617 47.179949,-30.071532c17.692757,-14.457215 -1.965476,-43.179167 2.949003,-43.950321z" opacity="0.5" stroke-opacity="null" stroke-width="NaN" fill="#1F361B"/>
  <path stroke="rgb(129, 201, 149)" id="svg_16" d="m0.118667,87.5267c0.005195,-0.3116 0.042927,12.3986 0.043639,14.9598c0.001039,3.7399 0.024937,3.7399 0.031171,3.7399c0.006234,0 0.050912,8.1032 0.081044,16.8298c0.030132,8.7265 0.118449,0.6233 0.124683,0c0.006234,-0.6234 0.290927,-17.1414 0.367815,-5.6099c0.036927,5.5382 0.109714,-14.0283 0.119228,-54.6967c-0.003896,-27.1145 -0.085187,-28.1321 -0.102084,-19.8684c-0.012468,3.662 -0.033768,2.5712 -0.028573,-4.1295c0.004724,-4.4871 0.036366,-18.3101 0.094811,-12.2327c0.049548,5.1522 0.078206,17.5443 0.088837,35.7631c0.007013,39.2694 -0.091175,68.2539 -0.091175,68.2539c0,0 0.007793,10.2849 0.018703,16.8298c0.01091,6.5449 0.014027,28.9845 0.012468,31.7894c-0.001558,2.805 0.046756,18.2323 0.062342,18.6997c0.013507,1.87 0.051432,36.4645 0.05299,43.9443c0.014027,2.1037 -0.001558,12.6223 -0.018702,14.0248c-0.017144,1.4025 -0.02182,-8.4149 -0.02182,-13.0898c0,-4.6749 -0.017144,-26.6471 -0.065459,-28.9845c-0.048315,-2.3375 -0.090395,-10.2849 -0.090395,-10.2849c0,0 -0.003117,4.675 -0.009351,6.545c0,0 0.015585,7.9473 0.015585,19.6346c-0.001558,5.1424 -0.026495,21.0372 -0.043639,22.4397c0,0 -0.028054,13.0898 -0.040522,13.0898c-0.012468,0 -0.034288,4.6749 -0.068576,-0.935c0,0 0.006234,-11.6873 0.037405,-8.4149c0,0 0.073251,-16.8297 0.037405,-24.3096c0,0 -0.021819,-9.3498 -0.034288,-13.0898c-0.012468,-3.7399 -0.024937,-9.8173 -0.028054,-16.8297c0,0 -0.104422,-1.87 -0.130917,-3.74c-0.026495,-1.8699 -0.07481,2.805 -0.07481,5.6099c0,2.805 0.007793,29.4521 0.021819,34.5945c0,0 0.004676,6.5449 0,8.4149c-0.004676,1.8699 0.017144,17.2972 -0.024937,15.8947c-0.039743,2.1037 -0.059224,-7.2461 -0.012468,-10.2848c0.002338,-10.0511 -0.059225,-52.5929 -0.099747,-46.7493c-0.05299,2.3375 -0.035067,-11.4535 -0.087278,10.2849c-0.054549,19.1671 -0.148061,32.7244 -0.152737,41.1393c0,0 -0.028054,-1.87 -0.034288,4.6749c0,0 -0.073251,2.805 -0.068576,-0.935c0.004676,-3.7399 0.008572,-11.4535 0.037405,-8.4148c0,0 0.065459,-7.7137 0.1278,-47.6843c0,0 -0.007793,-10.2848 0.003117,-18.6997c0.01091,-8.4148 -0.006234,-43.0093 -0.084161,-41.1393c0,0 -0.029093,3.1166 -0.046756,-11.2198c0,0 -0.007273,-2.805 0,-5.6099c0.007273,-2.805 0.024937,-7.1682 0.028054,-10.2848c0.003117,-3.1167 0.01039,-7.7916 0.049873,-12.1549c0.018703,-5.8436 -0.002078,-17.453 0.003117,-17.7647z" fill-opacity="null" stroke-opacity="null" stroke-width="NaN" fill="rgb(129, 201, 149)"/>
 </g>
</svg>